<?xml version="1.0" encoding="UTF-8" standalone="no"?><svg xmlns="http://www.w3.org/2000/svg" xmlns:xlink="http://www.w3.org/1999/xlink" contentScriptType="application/ecmascript" contentStyleType="text/css" height="541px" preserveAspectRatio="none" style="width:778px;height:541px;" version="1.1" viewBox="0 0 778 541" width="778px" zoomAndPan="magnify"><defs><filter height="300%" id="fvx9ddtbtlkj7" width="300%" x="-1" y="-1"><feGaussianBlur result="blurOut" stdDeviation="2.0"/><feColorMatrix in="blurOut" result="blurOut2" type="matrix" values="0 0 0 0 0 0 0 0 0 0 0 0 0 0 0 0 0 0 .4 0"/><feOffset dx="4.0" dy="4.0" in="blurOut2" result="blurOut3"/><feBlend in="SourceGraphic" in2="blurOut3" mode="normal"/></filter></defs><g><!--MD5=[9dd9a42ce415473605d8e1ad50de8a82]
cluster Flask Service--><rect fill="#D3D3D3" filter="url(#fvx9ddtbtlkj7)" height="93" rx="7.5" ry="7.5" style="stroke: #000000; stroke-width: 1.5;" width="282" x="22" y="49"/><text fill="#000000" font-family="sans-serif" font-size="14" font-weight="bold" lengthAdjust="spacingAndGlyphs" textLength="89" x="118.5" y="65.9659">Flask Service</text><!--MD5=[d5ac3844f66b12d9e08170e47495e096]
cluster app--><polygon fill="#D3D3D3" filter="url(#fvx9ddtbtlkj7)" points="328,24,360,24,367,49.0679,476,49.0679,476,167,328,167,328,24" style="stroke: #000000; stroke-width: 1.5;"/><line style="stroke: #000000; stroke-width: 1.5;" x1="328" x2="367" y1="49.0679" y2="49.0679"/><text fill="#000000" font-family="sans-serif" font-size="14" font-weight="bold" lengthAdjust="spacingAndGlyphs" textLength="26" x="332" y="40.9659">app</text><!--MD5=[660c04458aca85d8d9782bd828e592a8]
cluster chat_route--><polygon fill="#D3D3D3" filter="url(#fvx9ddtbtlkj7)" points="38,218,118,218,125,243.0679,280,243.0679,280,346,38,346,38,218" style="stroke: #000000; stroke-width: 1.5;"/><line style="stroke: #000000; stroke-width: 1.5;" x1="38" x2="125" y1="243.0679" y2="243.0679"/><text fill="#000000" font-family="sans-serif" font-size="14" font-weight="bold" lengthAdjust="spacingAndGlyphs" textLength="74" x="42" y="234.9659">chat_route</text><!--MD5=[c88386714f9298b9fafa7e2e1bd3b902]
cluster ocr_route--><polygon fill="#D3D3D3" filter="url(#fvx9ddtbtlkj7)" points="304,223.5,376,223.5,383,248.5679,500,248.5679,500,340.5,304,340.5,304,223.5" style="stroke: #000000; stroke-width: 1.5;"/><line style="stroke: #000000; stroke-width: 1.5;" x1="304" x2="383" y1="248.5679" y2="248.5679"/><text fill="#000000" font-family="sans-serif" font-size="14" font-weight="bold" lengthAdjust="spacingAndGlyphs" textLength="66" x="308" y="240.4659">ocr_route</text><!--MD5=[14a53d6fb3af0757af8fe693936922ab]
cluster programming_bot_route--><polygon fill="#D3D3D3" filter="url(#fvx9ddtbtlkj7)" points="524,223.5,701,223.5,708,248.5679,734,248.5679,734,340.5,524,340.5,524,223.5" style="stroke: #000000; stroke-width: 1.5;"/><line style="stroke: #000000; stroke-width: 1.5;" x1="524" x2="708" y1="248.5679" y2="248.5679"/><text fill="#000000" font-family="sans-serif" font-size="14" font-weight="bold" lengthAdjust="spacingAndGlyphs" textLength="171" x="528" y="240.4659">programming_bot_route</text><!--MD5=[b1cd182e63fc04f7d793a64be2aac579]
cluster markdown_converter--><polygon fill="#D3D3D3" filter="url(#fvx9ddtbtlkj7)" points="537,404.5,692,404.5,699,429.5679,721,429.5679,721,521.5,537,521.5,537,404.5" style="stroke: #000000; stroke-width: 1.5;"/><line style="stroke: #000000; stroke-width: 1.5;" x1="537" x2="699" y1="429.5679" y2="429.5679"/><text fill="#000000" font-family="sans-serif" font-size="14" font-weight="bold" lengthAdjust="spacingAndGlyphs" textLength="149" x="541" y="421.4659">markdown_converter</text><!--MD5=[ae86e79fe6d14698a4c5008698a20ce9]
cluster ocr--><polygon fill="#D3D3D3" filter="url(#fvx9ddtbtlkj7)" points="316,404.5,344,404.5,351,429.5679,488,429.5679,488,521.5,316,521.5,316,404.5" style="stroke: #000000; stroke-width: 1.5;"/><line style="stroke: #000000; stroke-width: 1.5;" x1="316" x2="351" y1="429.5679" y2="429.5679"/><text fill="#000000" font-family="sans-serif" font-size="14" font-weight="bold" lengthAdjust="spacingAndGlyphs" textLength="22" x="320" y="421.4659">ocr</text><!--MD5=[73448be20017da4a7160688be55fc883]
cluster text_processing--><polygon fill="#D3D3D3" filter="url(#fvx9ddtbtlkj7)" points="75,397,190,397,197,422.0679,243,422.0679,243,529,75,529,75,397" style="stroke: #000000; stroke-width: 1.5;"/><line style="stroke: #000000; stroke-width: 1.5;" x1="75" x2="197" y1="422.0679" y2="422.0679"/><text fill="#000000" font-family="sans-serif" font-size="14" font-weight="bold" lengthAdjust="spacingAndGlyphs" textLength="109" x="79" y="413.9659">text_processing</text><!--MD5=[77140a42179fe8241cde5d77dd05aadc]
cluster config--><polygon fill="#D3D3D3" filter="url(#fvx9ddtbtlkj7)" points="578,44.5,627,44.5,634,69.5679,656,69.5679,656,146.5,578,146.5,578,44.5" style="stroke: #000000; stroke-width: 1.5;"/><line style="stroke: #000000; stroke-width: 1.5;" x1="578" x2="634" y1="69.5679" y2="69.5679"/><text fill="#000000" font-family="sans-serif" font-size="14" font-weight="bold" lengthAdjust="spacingAndGlyphs" textLength="43" x="582" y="61.4659">config</text><!--MD5=[7a43269fac721b1ccfb3b5f042acc3e7]
entity Routes--><rect fill="#FFFFFF" filter="url(#fvx9ddtbtlkj7)" height="39.0679" rx="7.5" ry="7.5" style="stroke: #000000; stroke-width: 1.5;" width="66" x="222" y="87"/><text fill="#000000" font-family="sans-serif" font-size="14" lengthAdjust="spacingAndGlyphs" textLength="46" x="232" y="111.9659">Routes</text><!--MD5=[4c3229e8240dfa29ecc305808e5086bb]
entity Utils--><rect fill="#FFFFFF" filter="url(#fvx9ddtbtlkj7)" height="39.0679" rx="7.5" ry="7.5" style="stroke: #000000; stroke-width: 1.5;" width="50" x="137" y="87"/><text fill="#000000" font-family="sans-serif" font-size="14" lengthAdjust="spacingAndGlyphs" textLength="30" x="147" y="111.9659">Utils</text><!--MD5=[2c8113cc364a23b9ee674e814acb7abf]
entity Config--><rect fill="#FFFFFF" filter="url(#fvx9ddtbtlkj7)" height="39.0679" rx="7.5" ry="7.5" style="stroke: #000000; stroke-width: 1.5;" width="64" x="38" y="87"/><text fill="#000000" font-family="sans-serif" font-size="14" lengthAdjust="spacingAndGlyphs" textLength="44" x="48" y="111.9659">Config</text><!--MD5=[30c005e15bba13a1fd4b356126ee97d3]
class app.py--><rect fill="#FFFFFF" filter="url(#fvx9ddtbtlkj7)" height="88.652" id="app.py" rx="7.5" ry="7.5" style="stroke: #000000; stroke-width: 1.5;" width="116" x="344" y="62"/><ellipse cx="381.05" cy="83.3441" fill="#FF7700" rx="11" ry="11" style="stroke: #000000; stroke-width: 1.0;"/><path d="M376.7688,76.9535 L379.6906,76.9535 L381.1594,82.391 L382.6281,76.9535 L385.5656,76.9535 L385.5656,89.3441 L383.4563,89.3441 L383.4563,79.4222 L382.1438,84.8441 L380.2063,84.8441 L378.8781,79.4222 L378.8781,89.3441 L376.7688,89.3441 L376.7688,76.9535 Z "/><text fill="#000000" font-family="sans-serif" font-size="12" font-style="italic" lengthAdjust="spacingAndGlyphs" textLength="39" x="397.95" y="79.8281">«Main»</text><text fill="#000000" font-family="sans-serif" font-size="12" lengthAdjust="spacingAndGlyphs" textLength="13" x="410.95" y="96.1722">py</text><line style="stroke: #000000; stroke-width: 1.5;" x1="345" x2="459" y1="104.6882" y2="104.6882"/><line style="stroke: #000000; stroke-width: 1.5;" x1="345" x2="459" y1="112.6882" y2="112.6882"/><text fill="#000000" font-family="sans-serif" font-size="11" lengthAdjust="spacingAndGlyphs" textLength="104" x="350" y="128.4471">+create_app() : Flask</text><text fill="#000000" font-family="sans-serif" font-size="11" lengthAdjust="spacingAndGlyphs" textLength="68" x="350" y="143.429">+run() : None</text><!--MD5=[c9238a9b7784ab003b6a5d14a91ee24e]
class chat_route.py--><rect fill="#FFFFFF" filter="url(#fvx9ddtbtlkj7)" height="73.6701" id="chat_route.py" rx="7.5" ry="7.5" style="stroke: #000000; stroke-width: 1.5;" width="209" x="54.5" y="256"/><ellipse cx="123.75" cy="277.3441" fill="#ADD1B2" rx="11" ry="11" style="stroke: #000000; stroke-width: 1.0;"/><path d="M126.7188,282.9847 Q126.1406,283.2816 125.5,283.4222 Q124.8594,283.5785 124.1563,283.5785 Q121.6563,283.5785 120.3281,281.9379 Q119.0156,280.2816 119.0156,277.1566 Q119.0156,274.0316 120.3281,272.3754 Q121.6563,270.7191 124.1563,270.7191 Q124.8594,270.7191 125.5,270.8754 Q126.1563,271.0316 126.7188,271.3285 L126.7188,274.0472 Q126.0938,273.4691 125.5,273.2035 Q124.9063,272.9222 124.2813,272.9222 Q122.9375,272.9222 122.25,274.0004 Q121.5625,275.0629 121.5625,277.1566 Q121.5625,279.2504 122.25,280.3285 Q122.9375,281.391 124.2813,281.391 Q124.9063,281.391 125.5,281.1254 Q126.0938,280.8441 126.7188,280.266 L126.7188,282.9847 Z "/><text fill="#000000" font-family="sans-serif" font-size="12" font-style="italic" lengthAdjust="spacingAndGlyphs" textLength="66" x="142.25" y="273.8281">«Controller»</text><text fill="#000000" font-family="sans-serif" font-size="12" lengthAdjust="spacingAndGlyphs" textLength="13" x="168.75" y="290.1722">py</text><line style="stroke: #000000; stroke-width: 1.5;" x1="55.5" x2="262.5" y1="298.6882" y2="298.6882"/><line style="stroke: #000000; stroke-width: 1.5;" x1="55.5" x2="262.5" y1="306.6882" y2="306.6882"/><text fill="#000000" font-family="sans-serif" font-size="11" lengthAdjust="spacingAndGlyphs" textLength="197" x="60.5" y="322.4471">+handle_chat_request(req) : Response</text><!--MD5=[de0b2dea5e362f40828536ff7c465c57]
class ocr_route.py--><rect fill="#FFFFFF" filter="url(#fvx9ddtbtlkj7)" height="62.9819" id="ocr_route.py" rx="7.5" ry="7.5" style="stroke: #000000; stroke-width: 1.5;" width="163" x="320.5" y="261.5"/><ellipse cx="391.25" cy="277.5" fill="#ADD1B2" rx="11" ry="11" style="stroke: #000000; stroke-width: 1.0;"/><path d="M394.2188,283.1406 Q393.6406,283.4375 393,283.5781 Q392.3594,283.7344 391.6563,283.7344 Q389.1563,283.7344 387.8281,282.0938 Q386.5156,280.4375 386.5156,277.3125 Q386.5156,274.1875 387.8281,272.5313 Q389.1563,270.875 391.6563,270.875 Q392.3594,270.875 393,271.0313 Q393.6563,271.1875 394.2188,271.4844 L394.2188,274.2031 Q393.5938,273.625 393,273.3594 Q392.4063,273.0781 391.7813,273.0781 Q390.4375,273.0781 389.75,274.1563 Q389.0625,275.2188 389.0625,277.3125 Q389.0625,279.4063 389.75,280.4844 Q390.4375,281.5469 391.7813,281.5469 Q392.4063,281.5469 393,281.2813 Q393.5938,281 394.2188,280.4219 L394.2188,283.1406 Z "/><text fill="#000000" font-family="sans-serif" font-size="12" lengthAdjust="spacingAndGlyphs" textLength="13" x="411.75" y="282.156">py</text><line style="stroke: #000000; stroke-width: 1.5;" x1="321.5" x2="482.5" y1="293.5" y2="293.5"/><line style="stroke: #000000; stroke-width: 1.5;" x1="321.5" x2="482.5" y1="301.5" y2="301.5"/><text fill="#000000" font-family="sans-serif" font-size="11" lengthAdjust="spacingAndGlyphs" textLength="151" x="326.5" y="317.2589">+process_ocr(req) : Response</text><!--MD5=[90dd8b6afd7af72e52bd5530d2617c93]
class programming_bot_route.py--><rect fill="#FFFFFF" filter="url(#fvx9ddtbtlkj7)" height="62.9819" id="programming_bot_route.py" rx="7.5" ry="7.5" style="stroke: #000000; stroke-width: 1.5;" width="178" x="540" y="261.5"/><ellipse cx="618.25" cy="277.5" fill="#ADD1B2" rx="11" ry="11" style="stroke: #000000; stroke-width: 1.0;"/><path d="M621.2188,283.1406 Q620.6406,283.4375 620,283.5781 Q619.3594,283.7344 618.6563,283.7344 Q616.1563,283.7344 614.8281,282.0938 Q613.5156,280.4375 613.5156,277.3125 Q613.5156,274.1875 614.8281,272.5313 Q616.1563,270.875 618.6563,270.875 Q619.3594,270.875 620,271.0313 Q620.6563,271.1875 621.2188,271.4844 L621.2188,274.2031 Q620.5938,273.625 620,273.3594 Q619.4063,273.0781 618.7813,273.0781 Q617.4375,273.0781 616.75,274.1563 Q616.0625,275.2188 616.0625,277.3125 Q616.0625,279.4063 616.75,280.4844 Q617.4375,281.5469 618.7813,281.5469 Q619.4063,281.5469 620,281.2813 Q620.5938,281 621.2188,280.4219 L621.2188,283.1406 Z "/><text fill="#000000" font-family="sans-serif" font-size="12" lengthAdjust="spacingAndGlyphs" textLength="13" x="638.75" y="282.156">py</text><line style="stroke: #000000; stroke-width: 1.5;" x1="541" x2="717" y1="293.5" y2="293.5"/><line style="stroke: #000000; stroke-width: 1.5;" x1="541" x2="717" y1="301.5" y2="301.5"/><text fill="#000000" font-family="sans-serif" font-size="11" lengthAdjust="spacingAndGlyphs" textLength="166" x="546" y="317.2589">+generate_code(req) : Response</text><!--MD5=[92a7f29a9d6968b90c0bf4c4f33513ea]
class markdown_converter.py--><rect fill="#FFFFFF" filter="url(#fvx9ddtbtlkj7)" height="62.9819" id="markdown_converter.py" rx="7.5" ry="7.5" style="stroke: #000000; stroke-width: 1.5;" width="152" x="553" y="442.5"/><ellipse cx="618.25" cy="458.5" fill="#ADD1B2" rx="11" ry="11" style="stroke: #000000; stroke-width: 1.0;"/><path d="M621.2188,464.1406 Q620.6406,464.4375 620,464.5781 Q619.3594,464.7344 618.6563,464.7344 Q616.1563,464.7344 614.8281,463.0938 Q613.5156,461.4375 613.5156,458.3125 Q613.5156,455.1875 614.8281,453.5313 Q616.1563,451.875 618.6563,451.875 Q619.3594,451.875 620,452.0313 Q620.6563,452.1875 621.2188,452.4844 L621.2188,455.2031 Q620.5938,454.625 620,454.3594 Q619.4063,454.0781 618.7813,454.0781 Q617.4375,454.0781 616.75,455.1563 Q616.0625,456.2188 616.0625,458.3125 Q616.0625,460.4063 616.75,461.4844 Q617.4375,462.5469 618.7813,462.5469 Q619.4063,462.5469 620,462.2813 Q620.5938,462 621.2188,461.4219 L621.2188,464.1406 Z "/><text fill="#000000" font-family="sans-serif" font-size="12" lengthAdjust="spacingAndGlyphs" textLength="13" x="638.75" y="463.156">py</text><line style="stroke: #000000; stroke-width: 1.5;" x1="554" x2="704" y1="474.5" y2="474.5"/><line style="stroke: #000000; stroke-width: 1.5;" x1="554" x2="704" y1="482.5" y2="482.5"/><text fill="#000000" font-family="sans-serif" font-size="11" lengthAdjust="spacingAndGlyphs" textLength="140" x="559" y="498.2589">+convert_to_html(text) : str</text><!--MD5=[2d5b06eb667373debd670411ff616526]
class ocr.py--><rect fill="#FFFFFF" filter="url(#fvx9ddtbtlkj7)" height="62.9819" id="ocr.py" rx="7.5" ry="7.5" style="stroke: #000000; stroke-width: 1.5;" width="140" x="332" y="442.5"/><ellipse cx="391.25" cy="458.5" fill="#ADD1B2" rx="11" ry="11" style="stroke: #000000; stroke-width: 1.0;"/><path d="M394.2188,464.1406 Q393.6406,464.4375 393,464.5781 Q392.3594,464.7344 391.6563,464.7344 Q389.1563,464.7344 387.8281,463.0938 Q386.5156,461.4375 386.5156,458.3125 Q386.5156,455.1875 387.8281,453.5313 Q389.1563,451.875 391.6563,451.875 Q392.3594,451.875 393,452.0313 Q393.6563,452.1875 394.2188,452.4844 L394.2188,455.2031 Q393.5938,454.625 393,454.3594 Q392.4063,454.0781 391.7813,454.0781 Q390.4375,454.0781 389.75,455.1563 Q389.0625,456.2188 389.0625,458.3125 Q389.0625,460.4063 389.75,461.4844 Q390.4375,462.5469 391.7813,462.5469 Q392.4063,462.5469 393,462.2813 Q393.5938,462 394.2188,461.4219 L394.2188,464.1406 Z "/><text fill="#000000" font-family="sans-serif" font-size="12" lengthAdjust="spacingAndGlyphs" textLength="13" x="411.75" y="463.156">py</text><line style="stroke: #000000; stroke-width: 1.5;" x1="333" x2="471" y1="474.5" y2="474.5"/><line style="stroke: #000000; stroke-width: 1.5;" x1="333" x2="471" y1="482.5" y2="482.5"/><text fill="#000000" font-family="sans-serif" font-size="11" lengthAdjust="spacingAndGlyphs" textLength="128" x="338" y="498.2589">+extract_text(image) : str</text><!--MD5=[a0c1fbde343591a92b88fbf58ab6032f]
class text_processing.py--><rect fill="#FFFFFF" filter="url(#fvx9ddtbtlkj7)" height="77.9638" id="text_processing.py" rx="7.5" ry="7.5" style="stroke: #000000; stroke-width: 1.5;" width="136" x="91" y="435"/><ellipse cx="148.25" cy="451" fill="#ADD1B2" rx="11" ry="11" style="stroke: #000000; stroke-width: 1.0;"/><path d="M151.2188,456.6406 Q150.6406,456.9375 150,457.0781 Q149.3594,457.2344 148.6563,457.2344 Q146.1563,457.2344 144.8281,455.5938 Q143.5156,453.9375 143.5156,450.8125 Q143.5156,447.6875 144.8281,446.0313 Q146.1563,444.375 148.6563,444.375 Q149.3594,444.375 150,444.5313 Q150.6563,444.6875 151.2188,444.9844 L151.2188,447.7031 Q150.5938,447.125 150,446.8594 Q149.4063,446.5781 148.7813,446.5781 Q147.4375,446.5781 146.75,447.6563 Q146.0625,448.7188 146.0625,450.8125 Q146.0625,452.9063 146.75,453.9844 Q147.4375,455.0469 148.7813,455.0469 Q149.4063,455.0469 150,454.7813 Q150.5938,454.5 151.2188,453.9219 L151.2188,456.6406 Z "/><text fill="#000000" font-family="sans-serif" font-size="12" lengthAdjust="spacingAndGlyphs" textLength="13" x="168.75" y="455.656">py</text><line style="stroke: #000000; stroke-width: 1.5;" x1="92" x2="226" y1="467" y2="467"/><line style="stroke: #000000; stroke-width: 1.5;" x1="92" x2="226" y1="475" y2="475"/><text fill="#000000" font-family="sans-serif" font-size="11" lengthAdjust="spacingAndGlyphs" textLength="107" x="97" y="490.7589">+clean_text(text) : str</text><text fill="#000000" font-family="sans-serif" font-size="11" lengthAdjust="spacingAndGlyphs" textLength="124" x="97" y="505.7408">+analyze_text(text) : dict</text><!--MD5=[a8fd74fbc8127fe52b59b504c9140e24]
class config.py--><rect fill="#FFFFFF" filter="url(#fvx9ddtbtlkj7)" height="48" id="config.py" rx="7.5" ry="7.5" style="stroke: #000000; stroke-width: 1.5;" width="45" x="594.5" y="82.5"/><ellipse cx="609.5" cy="98.5" fill="#ADD1B2" rx="11" ry="11" style="stroke: #000000; stroke-width: 1.0;"/><path d="M612.4688,104.1406 Q611.8906,104.4375 611.25,104.5781 Q610.6094,104.7344 609.9063,104.7344 Q607.4063,104.7344 606.0781,103.0938 Q604.7656,101.4375 604.7656,98.3125 Q604.7656,95.1875 606.0781,93.5313 Q607.4063,91.875 609.9063,91.875 Q610.6094,91.875 611.25,92.0313 Q611.9063,92.1875 612.4688,92.4844 L612.4688,95.2031 Q611.8438,94.625 611.25,94.3594 Q610.6563,94.0781 610.0313,94.0781 Q608.6875,94.0781 608,95.1563 Q607.3125,96.2188 607.3125,98.3125 Q607.3125,100.4063 608,101.4844 Q608.6875,102.5469 610.0313,102.5469 Q610.6563,102.5469 611.25,102.2813 Q611.8438,102 612.4688,101.4219 L612.4688,104.1406 Z "/><text fill="#000000" font-family="sans-serif" font-size="12" lengthAdjust="spacingAndGlyphs" textLength="13" x="623.5" y="103.156">py</text><line style="stroke: #000000; stroke-width: 1.5;" x1="595.5" x2="638.5" y1="114.5" y2="114.5"/><line style="stroke: #000000; stroke-width: 1.5;" x1="595.5" x2="638.5" y1="122.5" y2="122.5"/><!--MD5=[d94a111fe22002f4dd4c5bcde3a60bab]
link app.py to chat_route.py--><path d="M344.41,151.22 C303.92,181.97 250.2,222.76 211.01,252.51 " fill="none" id="app.py-&gt;chat_route.py" style="stroke: #00008B; stroke-width: 1.0;"/><polygon fill="#00008B" points="206.78,255.72,216.3621,253.4432,210.7558,252.6881,211.511,247.0818,206.78,255.72" style="stroke: #00008B; stroke-width: 1.0;"/><text fill="#000000" font-family="sans-serif" font-size="13" lengthAdjust="spacingAndGlyphs" textLength="36" x="304" y="197.897">Nutze</text><!--MD5=[c661039d89431dd3468ff177ba101ef7]
link app.py to ocr_route.py--><path d="M402,151.22 C402,183.26 402,226.2 402,256.21 " fill="none" id="app.py-&gt;ocr_route.py" style="stroke: #00008B; stroke-width: 1.0;"/><polygon fill="#00008B" points="402,261.28,406,252.28,402,256.28,398,252.28,402,261.28" style="stroke: #00008B; stroke-width: 1.0;"/><text fill="#000000" font-family="sans-serif" font-size="13" lengthAdjust="spacingAndGlyphs" textLength="36" x="403" y="197.897">Nutze</text><!--MD5=[67e9cacbdf8c3901356f48b9ee8ef2cb]
link app.py to programming_bot_route.py--><path d="M455.8,151.22 C496.02,183.92 550.24,227.98 587.23,258.05 " fill="none" id="app.py-&gt;programming_bot_route.py" style="stroke: #00008B; stroke-width: 1.0;"/><polygon fill="#00008B" points="591.2,261.28,586.7337,252.5021,587.3181,258.1287,581.6915,258.7131,591.2,261.28" style="stroke: #00008B; stroke-width: 1.0;"/><text fill="#000000" font-family="sans-serif" font-size="13" lengthAdjust="spacingAndGlyphs" textLength="36" x="516" y="197.897">Nutze</text><!--MD5=[4bacec63edda2fca1f8cf7001dc62fb7]
link chat_route.py to text_processing.py--><path d="M159,330.22 C159,359 159,399.33 159,429.79 " fill="none" id="chat_route.py-&gt;text_processing.py" style="stroke: #00008B; stroke-width: 1.0;"/><polygon fill="#00008B" points="159,434.98,163,425.98,159,429.98,155,425.98,159,434.98" style="stroke: #00008B; stroke-width: 1.0;"/><text fill="#000000" font-family="sans-serif" font-size="13" lengthAdjust="spacingAndGlyphs" textLength="96" x="160" y="376.897">Verarbeitet Text</text><!--MD5=[4b6c729ff27b6cf5fb1a0fede2f2c54b]
link ocr_route.py to ocr.py--><path d="M402,324.77 C402,355.99 402,404.27 402,437.19 " fill="none" id="ocr_route.py-&gt;ocr.py" style="stroke: #00008B; stroke-width: 1.0;"/><polygon fill="#00008B" points="402,442.33,406,433.33,402,437.33,398,433.33,402,442.33" style="stroke: #00008B; stroke-width: 1.0;"/><text fill="#000000" font-family="sans-serif" font-size="13" lengthAdjust="spacingAndGlyphs" textLength="100" x="403" y="376.897">Führt OCR durch</text><!--MD5=[c933daff9a416b19d7e0248bd73c6bf9]
link programming_bot_route.py to markdown_converter.py--><path d="M629,324.77 C629,355.99 629,404.27 629,437.19 " fill="none" id="programming_bot_route.py-&gt;markdown_converter.py" style="stroke: #00008B; stroke-width: 1.0;"/><polygon fill="#00008B" points="629,442.33,633,433.33,629,437.33,625,433.33,629,442.33" style="stroke: #00008B; stroke-width: 1.0;"/><text fill="#000000" font-family="sans-serif" font-size="13" lengthAdjust="spacingAndGlyphs" textLength="136" x="630" y="376.897">Konvertiert Markdown</text><!--MD5=[69e88732030c1430385e14a7c5d206a5]
@startuml
skinparam classAttributeIconSize 0
skinparam shadowing true
skinparam roundcorner 15
skinparam class {
    BackgroundColor White
    ArrowColor DarkBlue
    BorderColor Black
}
skinparam package {
    BackgroundColor LightGray
    BorderColor Black
}

package "Flask Service" <<Rectangle>> {
    
    class "app.py" << (M,#FF7700) Main >> {
        + create_app() : Flask
        + run() : None
    }

    package "Routes" <<Rectangle>> {
        
        class "chat_route.py" << Controller >> {
            + handle_chat_request(req) : Response
        }
        
        class "ocr_route.py" {
            + process_ocr(req) : Response
        }
        
        class "programming_bot_route.py" {
            + generate_code(req) : Response
        }
    }

    package "Utils" <<Rectangle>> {
        
        class "markdown_converter.py" {
            + convert_to_html(text) : str
        }
        
        class "ocr.py" {
            + extract_text(image) : str
        }
        
        class "text_processing.py" {
            + clean_text(text) : str
            + analyze_text(text) : dict
        }
    }
    
    package "Config" <<Rectangle>> {
        class "config.py" {
        }
    }

    app.py - -> chat_route.py : "Nutze"
    app.py - -> ocr_route.py : "Nutze"
    app.py - -> programming_bot_route.py : "Nutze"

    chat_route.py - -> text_processing.py : "Verarbeitet Text"
    ocr_route.py - -> ocr.py : "Führt OCR durch"
    programming_bot_route.py - -> markdown_converter.py : "Konvertiert Markdown"

}
@enduml

PlantUML version 1.2020.02(Sun Mar 01 11:22:07 CET 2020)
(GPL source distribution)
Java Runtime: Java(TM) SE Runtime Environment
JVM: Java HotSpot(TM) 64-Bit Server VM
Java Version: 23+37-2369
Operating System: Linux
Default Encoding: UTF-8
Language: de
Country: DE
--></g></svg>